<svg width="27" height="37" viewBox="0 0 27 37" fill="none" xmlns="http://www.w3.org/2000/svg">
<path d="M11.7676 11C12.5374 9.66667 14.4626 9.66667 15.2324 11L21.7275 22.25C22.4972 23.5833 21.5347 25.25 19.9951 25.25H7.00488C5.51335 25.25 4.56397 23.686 5.20605 22.376L5.27246 22.25L11.7676 11Z" stroke="#FF0000" stroke-width="2"/>
<path d="M14.6078 14.2727H12.7115L12.882 20.3835H14.4416L14.6078 14.2727ZM13.6618 23.1108C14.2073 23.1108 14.6803 22.6548 14.6845 22.0881C14.6803 21.5298 14.2073 21.0739 13.6618 21.0739C13.0993 21.0739 12.6348 21.5298 12.6391 22.0881C12.6348 22.6548 13.0993 23.1108 13.6618 23.1108Z" fill="#FF0000"/>
</svg>
